<svg width="40" height="40" viewBox="0 0 40 40" fill="none" xmlns="http://www.w3.org/2000/svg">
<rect x="0.5" y="0.5" width="39" height="39" rx="7.5" stroke="#1C6657"/>
<path d="M5 8.33333C5 7.44928 5.35119 6.60143 5.97631 5.97631C6.60143 5.35119 7.44928 5 8.33333 5H13.8C14.1497 5.00027 14.4904 5.11049 14.7739 5.31508C15.0575 5.51967 15.2695 5.80826 15.38 6.14L17.8767 13.6283C18.0032 14.0089 17.9882 14.4223 17.8345 14.7927C17.6808 15.1632 17.3988 15.4658 17.04 15.645L13.2783 17.5283C15.1222 21.6092 18.3908 24.8778 22.4717 26.7217L24.355 22.96C24.5342 22.6012 24.8368 22.3192 25.2073 22.1655C25.5777 22.0118 25.9911 21.9968 26.3717 22.1233L33.86 24.62C34.192 24.7306 34.4808 24.9429 34.6854 25.2267C34.89 25.5106 35.0001 25.8517 35 26.2017V31.6667C35 32.5507 34.6488 33.3986 34.0237 34.0237C33.3986 34.6488 32.5507 35 31.6667 35H30C16.1933 35 5 23.8067 5 10V8.33333Z" stroke="#1C6657" stroke-width="2" stroke-linecap="round" stroke-linejoin="round"/>
</svg>
