<svg width="30" height="30" viewBox="0 0 30 30" fill="none" xmlns="http://www.w3.org/2000/svg">
<path d="M15 2.8125C12.5895 2.8125 10.2332 3.52728 8.22899 4.86646C6.22477 6.20564 4.66267 8.10907 3.74022 10.336C2.81778 12.563 2.57643 15.0135 3.04668 17.3777C3.51694 19.7418 4.67769 21.9134 6.38214 23.6179C8.08659 25.3223 10.2582 26.4831 12.6223 26.9533C14.9865 27.4236 17.437 27.1822 19.664 26.2598C21.8909 25.3373 23.7944 23.7752 25.1335 21.771C26.4727 19.7668 27.1875 17.4105 27.1875 15C27.1841 11.7687 25.899 8.67076 23.6141 6.3859C21.3292 4.10104 18.2313 2.81591 15 2.8125ZM15 25.3125C12.9604 25.3125 10.9666 24.7077 9.27069 23.5745C7.57481 22.4414 6.25303 20.8308 5.4725 18.9464C4.69197 17.0621 4.48775 14.9886 4.88566 12.9881C5.28357 10.9877 6.26574 9.15019 7.70797 7.70796C9.1502 6.26573 10.9877 5.28356 12.9881 4.88565C14.9886 4.48774 17.0621 4.69196 18.9464 5.47249C20.8308 6.25302 22.4414 7.5748 23.5745 9.27068C24.7077 10.9666 25.3125 12.9604 25.3125 15C25.3094 17.7341 24.2219 20.3553 22.2886 22.2886C20.3553 24.2219 17.7341 25.3094 15 25.3125ZM11.25 15C11.25 15.7871 11.4976 16.5542 11.9578 17.1927C12.418 17.8312 13.0675 18.3087 13.8142 18.5576C14.5608 18.8065 15.3669 18.8141 16.1181 18.5794C16.8694 18.3448 17.5278 17.8796 18 17.25C18.1493 17.0511 18.3716 16.9196 18.6178 16.8846C18.8641 16.8495 19.1142 16.9137 19.3131 17.0631C19.512 17.2124 19.6434 17.4347 19.6785 17.6809C19.7136 17.9272 19.6493 18.1773 19.5 18.3762C18.7915 19.3204 17.8039 20.0177 16.677 20.3695C15.5502 20.7212 14.3412 20.7096 13.2214 20.3361C12.1016 19.9627 11.1276 19.2464 10.4374 18.2887C9.74727 17.331 9.37588 16.1805 9.37588 15C9.37588 13.8195 9.74727 12.669 10.4374 11.7113C11.1276 10.7536 12.1016 10.0373 13.2214 9.66389C14.3412 9.29045 15.5502 9.27878 16.677 9.63053C17.8039 9.98229 18.7915 10.6796 19.5 11.6238C19.5739 11.7223 19.6278 11.8344 19.6584 11.9537C19.689 12.073 19.6959 12.1972 19.6785 12.3191C19.6611 12.441 19.6199 12.5583 19.5572 12.6643C19.4945 12.7703 19.4116 12.863 19.3131 12.9369C19.2146 13.0109 19.1025 13.0647 18.9832 13.0953C18.8639 13.1259 18.7398 13.1328 18.6178 13.1154C18.4959 13.098 18.3786 13.0568 18.2726 12.9942C18.1666 12.9315 18.074 12.8485 18 12.75C17.5278 12.1204 16.8694 11.6552 16.1181 11.4206C15.3669 11.1859 14.5608 11.1935 13.8142 11.4424C13.0675 11.6913 12.418 12.1688 11.9578 12.8073C11.4976 13.4458 11.25 14.2129 11.25 15Z" fill="white"/>
</svg>
