<svg width="40" height="40" viewBox="0 0 40 40" fill="none" xmlns="http://www.w3.org/2000/svg">
<g clip-path="url(#clip0_66_233)">
<path d="M40 20C40 8.95434 31.0457 4.57764e-05 20 4.57764e-05C8.9543 4.57764e-05 0 8.95434 0 20C0 29.9826 7.31371 38.2567 16.875 39.7571V25.7813H11.7969V20H16.875V15.5938C16.875 10.5813 19.8609 7.81255 24.4293 7.81255C26.6175 7.81255 28.9062 8.20317 28.9062 8.20317V13.125H26.3843C23.8998 13.125 23.125 14.6667 23.125 16.2484V20H28.6719L27.7852 25.7813H23.125V39.7571C32.6863 38.2567 40 29.9826 40 20Z" fill="#1C6657"/>
<path d="M27.7852 25.7812L28.6719 20H23.125V16.2483C23.125 14.6667 23.8998 13.125 26.3843 13.125H28.9063V8.20312C28.9063 8.20312 26.6175 7.8125 24.4293 7.8125C19.8609 7.8125 16.875 10.5812 16.875 15.5938V20H11.7969V25.7812H16.875V39.757C17.8932 39.9168 18.9369 40 20 40C21.0631 40 22.1068 39.9168 23.125 39.757V25.7812H27.7852Z" fill="white"/>
</g>
<defs>
<clipPath id="clip0_66_233">
<rect width="40" height="40" fill="white"/>
</clipPath>
</defs>
</svg>
