<svg width="57" height="40" viewBox="0 0 57 40" fill="none" xmlns="http://www.w3.org/2000/svg">
<g clip-path="url(#clip0_66_238)">
<path d="M55.7792 6.24613C55.124 3.78742 53.1938 1.85129 50.7425 1.19419C46.2999 0 28.4848 0 28.4848 0C28.4848 0 10.6699 0 6.22714 1.19419C3.77605 1.85129 1.84555 3.78742 1.19045 6.24613C0 10.7024 0 20 0 20C0 20 0 29.2975 1.19045 33.7542C1.84555 36.2126 3.77605 38.1487 6.22714 38.8061C10.6699 40 28.4848 40 28.4848 40C28.4848 40 46.2999 40 50.7425 38.8061C53.1938 38.1487 55.124 36.2126 55.7792 33.7542C56.9697 29.2975 56.9697 20 56.9697 20C56.9697 20 56.9697 10.7024 55.7792 6.24613Z" fill="#1C6657"/>
<path d="M22.6584 28.4414L37.5483 20.0003L22.6584 11.5583V28.4414Z" fill="white"/>
</g>
<defs>
<clipPath id="clip0_66_238">
<rect width="56.9697" height="40" fill="white"/>
</clipPath>
</defs>
</svg>
